<svg width="17" height="18" viewBox="0 0 17 18" fill="none" xmlns="http://www.w3.org/2000/svg">
<path d="M11.2714 7.625V3.875C11.2714 2.14911 9.87225 0.75 8.14636 0.75C6.42047 0.75 5.02136 2.14911 5.02136 3.875V7.625M14.4847 5.96436L15.5373 15.9644C15.5956 16.5179 15.1616 17 14.605 17H1.68772C1.13113 17 0.697107 16.5179 0.755374 15.9644L1.80801 5.96436C1.85823 5.48722 2.26058 5.125 2.74035 5.125H13.5524C14.0321 5.125 14.4345 5.48722 14.4847 5.96436ZM5.33386 7.625C5.33386 7.79759 5.19395 7.9375 5.02136 7.9375C4.84877 7.9375 4.70886 7.79759 4.70886 7.625C4.70886 7.45241 4.84877 7.3125 5.02136 7.3125C5.19395 7.3125 5.33386 7.45241 5.33386 7.625ZM11.5839 7.625C11.5839 7.79759 11.4439 7.9375 11.2714 7.9375C11.0988 7.9375 10.9589 7.79759 10.9589 7.625C10.9589 7.45241 11.0988 7.3125 11.2714 7.3125C11.4439 7.3125 11.5839 7.45241 11.5839 7.625Z" stroke="white" stroke-width="1.5" stroke-linecap="round" stroke-linejoin="round"/>
</svg>
