<svg width="11" height="11" viewBox="0 0 11 11" fill="none" xmlns="http://www.w3.org/2000/svg">
<path d="M3.9375 0.75C3.41973 0.75 3 1.16973 3 1.6875C3 2.20527 3.41973 2.625 3.9375 2.625H4.875V4.875H0.9375C0.419734 4.875 0 4.45527 0 3.9375V3.5625C0 3.04473 0.419733 2.625 0.9375 2.625H2.53417C2.35468 2.35686 2.25 2.0344 2.25 1.6875C2.25 0.755519 3.00552 0 3.9375 0C4.46761 0 4.94063 0.244438 5.25 0.626751C5.55937 0.244438 6.03239 0 6.5625 0C7.49448 0 8.25 0.755519 8.25 1.6875C8.25 2.0344 8.14532 2.35686 7.96583 2.625H9.9375C10.4553 2.625 10.875 3.04473 10.875 3.5625V3.9375C10.875 4.45527 10.4553 4.875 9.9375 4.875H5.625V2.625H6.5625C7.08027 2.625 7.5 2.20527 7.5 1.6875C7.5 1.16973 7.08027 0.75 6.5625 0.75C6.04473 0.75 5.625 1.16973 5.625 1.6875V2.625H4.875V1.6875C4.875 1.16973 4.45527 0.75 3.9375 0.75Z" fill="white"/>
<path d="M4.875 5.625H0.75V9C0.75 9.62132 1.25368 10.125 1.875 10.125H4.875V5.625Z" fill="white"/>
<path d="M5.625 5.625V10.125H9C9.62132 10.125 10.125 9.62132 10.125 9V5.625H5.625Z" fill="white"/>
</svg>
