<svg width="180" height="16" viewBox="0 0 180 16" fill="none" xmlns="http://www.w3.org/2000/svg">
<path d="M63.7895 8.11699C63.7895 7.77849 63.762 7.43749 63.7035 7.10449H59.002V9.02399H61.694C61.6388 9.3306 61.5221 9.62285 61.351 9.88314C61.1798 10.1434 60.9577 10.3664 60.698 10.5385V11.7835H62.304C63.247 10.9155 63.789 9.63349 63.789 8.11699H63.7895Z" fill="#2A84FC"/>
<path d="M59.002 12.987C60.346 12.987 61.48 12.546 62.306 11.784L60.6995 10.5385C60.253 10.8425 59.676 11.0145 59.0035 11.0145C57.7035 11.0145 56.6005 10.1375 56.205 8.95801H54.5475V10.2415C54.9626 11.067 55.599 11.7609 56.3855 12.2457C57.1721 12.7305 58.078 12.9872 59.002 12.987Z" fill="#00AC47"/>
<path d="M56.2035 8.958C55.9947 8.33897 55.9947 7.66853 56.2035 7.0495V5.7655H54.5475C54.1988 6.46009 54.0172 7.22654 54.0172 8.00375C54.0172 8.78096 54.1988 9.54742 54.5475 10.242L56.2035 8.958Z" fill="#FFBA00"/>
<path d="M59.002 4.99103C59.7126 4.97952 60.3994 5.24781 60.914 5.73803L62.337 4.31503C61.4345 3.46834 60.2394 3.00373 59.002 3.01853C58.0779 3.01829 57.1719 3.27502 56.3852 3.76003C55.5986 4.24504 54.9623 4.93923 54.5475 5.76503L56.2035 7.05003C56.597 5.86853 57.7015 4.99103 59.002 4.99103Z" fill="#FC2C25"/>
<g clip-path="url(#clip0_9004_3018)">
<path d="M72.723 2.96597C72.8255 2.71958 73.1745 2.71958 73.277 2.96597L74.5167 5.94645C74.5599 6.05032 74.6575 6.1213 74.7697 6.13029L77.9874 6.38825C78.2534 6.40957 78.3612 6.74152 78.1586 6.91512L75.707 9.01513C75.6216 9.08831 75.5843 9.20315 75.6104 9.31257L76.3594 12.4525C76.4213 12.7121 76.1389 12.9172 75.9112 12.7781L73.1564 11.0955C73.0604 11.0369 72.9396 11.0369 72.8436 11.0955L70.0888 12.7781C69.8611 12.9172 69.5787 12.7121 69.6406 12.4525L70.3896 9.31257C70.4157 9.20315 70.3784 9.08831 70.293 9.01513L67.8414 6.91512C67.6388 6.74152 67.7466 6.40957 68.0126 6.38825L71.2303 6.13029C71.3425 6.1213 71.4401 6.05032 71.4833 5.94645L72.723 2.96597Z" fill="#E5E7EA"/>
<g clip-path="url(#clip1_9004_3018)">
<path d="M72.723 2.96597C72.8255 2.71958 73.1745 2.71958 73.277 2.96597L74.5167 5.94645C74.5599 6.05032 74.6575 6.1213 74.7697 6.13029L77.9874 6.38825C78.2534 6.40957 78.3612 6.74152 78.1586 6.91512L75.707 9.01513C75.6216 9.08831 75.5843 9.20315 75.6104 9.31257L76.3594 12.4525C76.4213 12.7121 76.1389 12.9172 75.9112 12.7781L73.1564 11.0955C73.0604 11.0369 72.9396 11.0369 72.8436 11.0955L70.0888 12.7781C69.8611 12.9172 69.5787 12.7121 69.6406 12.4525L70.3896 9.31257C70.4157 9.20315 70.3784 9.08831 70.293 9.01513L67.8414 6.91512C67.6388 6.74152 67.7466 6.40957 68.0126 6.38825L71.2303 6.13029C71.3425 6.1213 71.4401 6.05032 71.4833 5.94645L72.723 2.96597Z" fill="#FDB022"/>
</g>
</g>
<g clip-path="url(#clip2_9004_3018)">
<path d="M84.723 2.96597C84.8255 2.71958 85.1745 2.71958 85.277 2.96597L86.5167 5.94645C86.5599 6.05032 86.6575 6.1213 86.7697 6.13029L89.9874 6.38825C90.2534 6.40957 90.3612 6.74152 90.1586 6.91512L87.707 9.01513C87.6216 9.08831 87.5843 9.20315 87.6104 9.31257L88.3594 12.4525C88.4213 12.7121 88.1389 12.9172 87.9112 12.7781L85.1564 11.0955C85.0604 11.0369 84.9396 11.0369 84.8436 11.0955L82.0888 12.7781C81.8611 12.9172 81.5787 12.7121 81.6406 12.4525L82.3896 9.31257C82.4157 9.20315 82.3784 9.08831 82.293 9.01513L79.8414 6.91512C79.6388 6.74152 79.7466 6.40957 80.0126 6.38825L83.2303 6.13029C83.3425 6.1213 83.4401 6.05032 83.4833 5.94645L84.723 2.96597Z" fill="#E5E7EA"/>
<g clip-path="url(#clip3_9004_3018)">
<path d="M84.723 2.96597C84.8255 2.71958 85.1745 2.71958 85.277 2.96597L86.5167 5.94645C86.5599 6.05032 86.6575 6.1213 86.7697 6.13029L89.9874 6.38825C90.2534 6.40957 90.3612 6.74152 90.1586 6.91512L87.707 9.01513C87.6216 9.08831 87.5843 9.20315 87.6104 9.31257L88.3594 12.4525C88.4213 12.7121 88.1389 12.9172 87.9112 12.7781L85.1564 11.0955C85.0604 11.0369 84.9396 11.0369 84.8436 11.0955L82.0888 12.7781C81.8611 12.9172 81.5787 12.7121 81.6406 12.4525L82.3896 9.31257C82.4157 9.20315 82.3784 9.08831 82.293 9.01513L79.8414 6.91512C79.6388 6.74152 79.7466 6.40957 80.0126 6.38825L83.2303 6.13029C83.3425 6.1213 83.4401 6.05032 83.4833 5.94645L84.723 2.96597Z" fill="#FDB022"/>
</g>
</g>
<g clip-path="url(#clip4_9004_3018)">
<path d="M96.723 2.96597C96.8255 2.71958 97.1745 2.71958 97.277 2.96597L98.5167 5.94645C98.5599 6.05032 98.6575 6.1213 98.7697 6.13029L101.987 6.38825C102.253 6.40957 102.361 6.74152 102.159 6.91512L99.707 9.01513C99.6216 9.08831 99.5843 9.20315 99.6104 9.31257L100.359 12.4525C100.421 12.7121 100.139 12.9172 99.9112 12.7781L97.1564 11.0955C97.0604 11.0369 96.9396 11.0369 96.8436 11.0955L94.0888 12.7781C93.8611 12.9172 93.5787 12.7121 93.6406 12.4525L94.3896 9.31257C94.4157 9.20315 94.3784 9.08831 94.293 9.01513L91.8414 6.91512C91.6388 6.74152 91.7466 6.40957 92.0126 6.38825L95.2303 6.13029C95.3425 6.1213 95.4401 6.05032 95.4833 5.94645L96.723 2.96597Z" fill="#E5E7EA"/>
<g clip-path="url(#clip5_9004_3018)">
<path d="M96.723 2.96597C96.8255 2.71958 97.1745 2.71958 97.277 2.96597L98.5167 5.94645C98.5599 6.05032 98.6575 6.1213 98.7697 6.13029L101.987 6.38825C102.253 6.40957 102.361 6.74152 102.159 6.91512L99.707 9.01513C99.6216 9.08831 99.5843 9.20315 99.6104 9.31257L100.359 12.4525C100.421 12.7121 100.139 12.9172 99.9112 12.7781L97.1564 11.0955C97.0604 11.0369 96.9396 11.0369 96.8436 11.0955L94.0888 12.7781C93.8611 12.9172 93.5787 12.7121 93.6406 12.4525L94.3896 9.31257C94.4157 9.20315 94.3784 9.08831 94.293 9.01513L91.8414 6.91512C91.6388 6.74152 91.7466 6.40957 92.0126 6.38825L95.2303 6.13029C95.3425 6.1213 95.4401 6.05032 95.4833 5.94645L96.723 2.96597Z" fill="#FDB022"/>
</g>
</g>
<g clip-path="url(#clip6_9004_3018)">
<path d="M108.723 2.96597C108.825 2.71958 109.175 2.71958 109.277 2.96597L110.517 5.94645C110.56 6.05032 110.658 6.1213 110.77 6.13029L113.987 6.38825C114.253 6.40957 114.361 6.74152 114.159 6.91512L111.707 9.01513C111.622 9.08831 111.584 9.20315 111.61 9.31257L112.359 12.4525C112.421 12.7121 112.139 12.9172 111.911 12.7781L109.156 11.0955C109.06 11.0369 108.94 11.0369 108.844 11.0955L106.089 12.7781C105.861 12.9172 105.579 12.7121 105.641 12.4525L106.39 9.31257C106.416 9.20315 106.378 9.08831 106.293 9.01513L103.841 6.91512C103.639 6.74152 103.747 6.40957 104.013 6.38825L107.23 6.13029C107.342 6.1213 107.44 6.05032 107.483 5.94645L108.723 2.96597Z" fill="#E5E7EA"/>
<g clip-path="url(#clip7_9004_3018)">
<path d="M108.723 2.96597C108.825 2.71958 109.175 2.71958 109.277 2.96597L110.517 5.94645C110.56 6.05032 110.658 6.1213 110.77 6.13029L113.987 6.38825C114.253 6.40957 114.361 6.74152 114.159 6.91512L111.707 9.01513C111.622 9.08831 111.584 9.20315 111.61 9.31257L112.359 12.4525C112.421 12.7121 112.139 12.9172 111.911 12.7781L109.156 11.0955C109.06 11.0369 108.94 11.0369 108.844 11.0955L106.089 12.7781C105.861 12.9172 105.579 12.7121 105.641 12.4525L106.39 9.31257C106.416 9.20315 106.378 9.08831 106.293 9.01513L103.841 6.91512C103.639 6.74152 103.747 6.40957 104.013 6.38825L107.23 6.13029C107.342 6.1213 107.44 6.05032 107.483 5.94645L108.723 2.96597Z" fill="#FDB022"/>
</g>
</g>
<g clip-path="url(#clip8_9004_3018)">
<path d="M120.723 2.96597C120.825 2.71958 121.175 2.71958 121.277 2.96597L122.517 5.94645C122.56 6.05032 122.658 6.1213 122.77 6.13029L125.987 6.38825C126.253 6.40957 126.361 6.74152 126.159 6.91512L123.707 9.01513C123.622 9.08831 123.584 9.20315 123.61 9.31257L124.359 12.4525C124.421 12.7121 124.139 12.9172 123.911 12.7781L121.156 11.0955C121.06 11.0369 120.94 11.0369 120.844 11.0955L118.089 12.7781C117.861 12.9172 117.579 12.7121 117.641 12.4525L118.39 9.31257C118.416 9.20315 118.378 9.08831 118.293 9.01513L115.841 6.91512C115.639 6.74152 115.747 6.40957 116.013 6.38825L119.23 6.13029C119.342 6.1213 119.44 6.05032 119.483 5.94645L120.723 2.96597Z" fill="#E5E7EA"/>
<g clip-path="url(#clip9_9004_3018)">
<path d="M120.723 2.96597C120.825 2.71958 121.175 2.71958 121.277 2.96597L122.517 5.94645C122.56 6.05032 122.658 6.1213 122.77 6.13029L125.987 6.38825C126.253 6.40957 126.361 6.74152 126.159 6.91512L123.707 9.01513C123.622 9.08831 123.584 9.20315 123.61 9.31257L124.359 12.4525C124.421 12.7121 124.139 12.9172 123.911 12.7781L121.156 11.0955C121.06 11.0369 120.94 11.0369 120.844 11.0955L118.089 12.7781C117.861 12.9172 117.579 12.7121 117.641 12.4525L118.39 9.31257C118.416 9.20315 118.378 9.08831 118.293 9.01513L115.841 6.91512C115.639 6.74152 115.747 6.40957 116.013 6.38825L119.23 6.13029C119.342 6.1213 119.44 6.05032 119.483 5.94645L120.723 2.96597Z" fill="#FDB022"/>
</g>
</g>
<defs>
<clipPath id="clip0_9004_3018">
<rect width="12" height="12" fill="white" transform="translate(67 2)"/>
</clipPath>
<clipPath id="clip1_9004_3018">
<rect width="12" height="12" fill="white" transform="translate(67 2)"/>
</clipPath>
<clipPath id="clip2_9004_3018">
<rect width="12" height="12" fill="white" transform="translate(79 2)"/>
</clipPath>
<clipPath id="clip3_9004_3018">
<rect width="12" height="12" fill="white" transform="translate(79 2)"/>
</clipPath>
<clipPath id="clip4_9004_3018">
<rect width="12" height="12" fill="white" transform="translate(91 2)"/>
</clipPath>
<clipPath id="clip5_9004_3018">
<rect width="12" height="12" fill="white" transform="translate(91 2)"/>
</clipPath>
<clipPath id="clip6_9004_3018">
<rect width="12" height="12" fill="white" transform="translate(103 2)"/>
</clipPath>
<clipPath id="clip7_9004_3018">
<rect width="12" height="12" fill="white" transform="translate(103 2)"/>
</clipPath>
<clipPath id="clip8_9004_3018">
<rect width="12" height="12" fill="white" transform="translate(115 2)"/>
</clipPath>
<clipPath id="clip9_9004_3018">
<rect width="9" height="12" fill="white" transform="translate(115 2)"/>
</clipPath>
</defs>
</svg>
