<svg width="13" height="10" viewBox="0 0 13 10" fill="none" xmlns="http://www.w3.org/2000/svg">
<path d="M12.7141 1.45743C12.5648 0.883731 12.1248 0.431968 11.566 0.278645C10.5535 0 6.49275 0 6.49275 0C6.49275 0 2.43205 0 1.4194 0.278645C0.860659 0.431968 0.420627 0.883731 0.271294 1.45743C0 2.49719 0 4.66667 0 4.66667C0 4.66667 0 6.83607 0.271294 7.8759C0.420627 8.4496 0.860659 8.90137 1.4194 9.05476C2.43205 9.33333 6.49275 9.33333 6.49275 9.33333C6.49275 9.33333 10.5535 9.33333 11.566 9.05476C12.1248 8.90137 12.5648 8.4496 12.7141 7.8759C12.9855 6.83607 12.9855 4.66667 12.9855 4.66667C12.9855 4.66667 12.9855 2.49719 12.7141 1.45743Z" fill="#E5E7EA"/>
<path d="M5.54845 6.29671C5.34124 6.42622 5.07246 6.27724 5.07246 6.03289V3.09756C5.07246 2.8532 5.34124 2.70423 5.54846 2.83374L7.89672 4.30146C8.09168 4.42332 8.09168 4.70726 7.89671 4.82911L5.54845 6.29671Z" fill="#383F45"/>
</svg>
