<svg width="48" height="48" viewBox="0 0 48 48" fill="none" xmlns="http://www.w3.org/2000/svg">
<rect x="0.5" y="0.5" width="47" height="47" rx="9.5" fill="url(#paint0_linear_9001_1953)"/>
<rect x="0.5" y="0.5" width="47" height="47" rx="9.5" stroke="url(#paint1_linear_9001_1953)"/>
<path d="M24 15.8008C26.6719 15.8008 26.9883 15.8125 28.0391 15.8594C29.0156 15.9023 29.543 16.0664 29.8945 16.2031C30.3594 16.3828 30.6953 16.6016 31.043 16.9492C31.3945 17.3008 31.6094 17.6328 31.7891 18.0977C31.9258 18.4492 32.0898 18.9805 32.1328 19.9531C32.1797 21.0078 32.1914 21.3242 32.1914 23.9922C32.1914 26.6641 32.1797 26.9805 32.1328 28.0312C32.0898 29.0078 31.9258 29.5352 31.7891 29.8867C31.6094 30.3516 31.3906 30.6875 31.043 31.0352C30.6914 31.3867 30.3594 31.6016 29.8945 31.7812C29.543 31.918 29.0117 32.082 28.0391 32.125C26.9844 32.1719 26.668 32.1836 24 32.1836C21.3281 32.1836 21.0117 32.1719 19.9609 32.125C18.9844 32.082 18.457 31.918 18.1055 31.7812C17.6406 31.6016 17.3047 31.3828 16.957 31.0352C16.6055 30.6836 16.3906 30.3516 16.2109 29.8867C16.0742 29.5352 15.9102 29.0039 15.8672 28.0312C15.8203 26.9766 15.8086 26.6602 15.8086 23.9922C15.8086 21.3203 15.8203 21.0039 15.8672 19.9531C15.9102 18.9766 16.0742 18.4492 16.2109 18.0977C16.3906 17.6328 16.6094 17.2969 16.957 16.9492C17.3086 16.5977 17.6406 16.3828 18.1055 16.2031C18.457 16.0664 18.9883 15.9023 19.9609 15.8594C21.0117 15.8125 21.3281 15.8008 24 15.8008ZM24 14C21.2852 14 20.9453 14.0117 19.8789 14.0586C18.8164 14.1055 18.0859 14.2773 17.4531 14.5234C16.793 14.7812 16.2344 15.1211 15.6797 15.6797C15.1211 16.2344 14.7813 16.793 14.5234 17.4492C14.2773 18.0859 14.1055 18.8125 14.0586 19.875C14.0117 20.9453 14 21.2852 14 24C14 26.7148 14.0117 27.0547 14.0586 28.1211C14.1055 29.1836 14.2773 29.9141 14.5234 30.5469C14.7813 31.207 15.1211 31.7656 15.6797 32.3203C16.2344 32.875 16.793 33.2187 17.4492 33.4727C18.0859 33.7187 18.8125 33.8906 19.875 33.9375C20.9414 33.9844 21.2812 33.9961 23.9961 33.9961C26.7109 33.9961 27.0508 33.9844 28.1172 33.9375C29.1797 33.8906 29.9102 33.7187 30.543 33.4727C31.1992 33.2187 31.7578 32.875 32.3125 32.3203C32.8672 31.7656 33.2109 31.207 33.4648 30.5508C33.7109 29.9141 33.8828 29.1875 33.9297 28.125C33.9766 27.0586 33.9883 26.7188 33.9883 24.0039C33.9883 21.2891 33.9766 20.9492 33.9297 19.8828C33.8828 18.8203 33.7109 18.0898 33.4648 17.457C33.2188 16.793 32.8789 16.2344 32.3203 15.6797C31.7656 15.125 31.207 14.7812 30.5508 14.5273C29.9141 14.2812 29.1875 14.1094 28.125 14.0625C27.0547 14.0117 26.7148 14 24 14Z" fill="#454C52"/>
<path d="M24 18.8633C21.1641 18.8633 18.8633 21.1641 18.8633 24C18.8633 26.8359 21.1641 29.1367 24 29.1367C26.8359 29.1367 29.1367 26.8359 29.1367 24C29.1367 21.1641 26.8359 18.8633 24 18.8633ZM24 27.332C22.1602 27.332 20.668 25.8398 20.668 24C20.668 22.1602 22.1602 20.668 24 20.668C25.8398 20.668 27.332 22.1602 27.332 24C27.332 25.8398 25.8398 27.332 24 27.332Z" fill="#454C52"/>
<path d="M30.5391 18.6601C30.5391 19.3242 30 19.8593 29.3398 19.8593C28.6758 19.8593 28.1406 19.3203 28.1406 18.6601C28.1406 17.9961 28.6797 17.4609 29.3398 17.4609C30 17.4609 30.5391 18 30.5391 18.6601Z" fill="#454C52"/>
<defs>
<linearGradient id="paint0_linear_9001_1953" x1="0" y1="0" x2="48" y2="48" gradientUnits="userSpaceOnUse">
<stop stop-color="#FAE4DF" stop-opacity="0.4"/>
<stop offset="1" stop-color="#F8D4CC"/>
</linearGradient>
<linearGradient id="paint1_linear_9001_1953" x1="0" y1="0" x2="52.302" y2="5.26508" gradientUnits="userSpaceOnUse">
<stop stop-color="#FAE4DF" stop-opacity="0.6"/>
<stop offset="1" stop-color="#F8D4CC"/>
</linearGradient>
</defs>
</svg>
