<svg width="48" height="48" viewBox="0 0 48 48" fill="none" xmlns="http://www.w3.org/2000/svg">
<rect x="0.5" y="0.5" width="47" height="47" rx="9.5" fill="url(#paint0_linear_9069_3205)"/>
<rect x="0.5" y="0.5" width="47" height="47" rx="9.5" stroke="url(#paint1_linear_9069_3205)"/>
<path d="M25 22.25V18.5C25 16.0147 27.0147 14 29.5 14C31.9853 14 34 16.0147 34 18.5V22.25M15.25 33.5H25.75C26.9926 33.5 28 32.4926 28 31.25V24.5C28 23.2574 26.9926 22.25 25.75 22.25H15.25C14.0074 22.25 13 23.2574 13 24.5V31.25C13 32.4926 14.0074 33.5 15.25 33.5Z" stroke="#383F45" stroke-width="1.5" stroke-linecap="round" stroke-linejoin="round"/>
<defs>
<linearGradient id="paint0_linear_9069_3205" x1="0" y1="0" x2="48" y2="48" gradientUnits="userSpaceOnUse">
<stop stop-color="#FAE4DF" stop-opacity="0.4"/>
<stop offset="1" stop-color="#F8D4CC"/>
</linearGradient>
<linearGradient id="paint1_linear_9069_3205" x1="0" y1="0" x2="52.302" y2="5.26508" gradientUnits="userSpaceOnUse">
<stop stop-color="#FAE4DF" stop-opacity="0.6"/>
<stop offset="1" stop-color="#F8D4CC"/>
</linearGradient>
</defs>
</svg>
