<svg width="94" height="40" viewBox="0 0 94 40" fill="none" xmlns="http://www.w3.org/2000/svg">
<path d="M40.1269 21.3748C40.1269 25.8108 36.6627 29.0797 32.4114 29.0797C28.16 29.0797 24.6959 25.8108 24.6959 21.3748C24.6959 16.9075 28.16 13.6699 32.4114 13.6699C36.6627 13.6699 40.1269 16.9075 40.1269 21.3748ZM36.7494 21.3748C36.7494 18.6027 34.7416 16.706 32.4114 16.706C30.0811 16.706 28.0733 18.6027 28.0733 21.3748C28.0733 24.1191 30.0811 26.0436 32.4114 26.0436C34.7416 26.0436 36.7494 24.1156 36.7494 21.3748Z" fill="#EA4335"/>
<path d="M56.7717 21.3748C56.7717 25.8108 53.3075 29.0797 49.0562 29.0797C44.8049 29.0797 41.3407 25.8108 41.3407 21.3748C41.3407 16.911 44.8049 13.6699 49.0562 13.6699C53.3075 13.6699 56.7717 16.9075 56.7717 21.3748ZM53.3942 21.3748C53.3942 18.6027 51.3865 16.706 49.0562 16.706C46.7259 16.706 44.7182 18.6027 44.7182 21.3748C44.7182 24.1191 46.7259 26.0436 49.0562 26.0436C51.3865 26.0436 53.3942 24.1156 53.3942 21.3748Z" fill="#FBBC05"/>
<path d="M72.723 14.1354V27.968C72.723 33.6581 69.3733 35.9821 65.4133 35.9821C61.6855 35.9821 59.442 33.4844 58.5959 31.4418L61.5364 30.2156C62.0601 31.4696 63.3431 32.9495 65.4098 32.9495C67.9446 32.9495 69.5155 31.3828 69.5155 28.4335V27.3254H69.3976C68.6416 28.2598 67.1852 29.0762 65.3474 29.0762C61.5018 29.0762 57.9786 25.7205 57.9786 21.4026C57.9786 17.0534 61.5018 13.6699 65.3474 13.6699C67.1818 13.6699 68.6382 14.4863 69.3976 15.3929H69.5155V14.1389H72.723V14.1354ZM69.7547 21.4026C69.7547 18.6895 67.9481 16.706 65.6491 16.706C63.3188 16.706 61.3665 18.6895 61.3665 21.4026C61.3665 24.0878 63.3188 26.0436 65.6491 26.0436C67.9481 26.0436 69.7547 24.0878 69.7547 21.4026Z" fill="#4285F4"/>
<path d="M78.0108 6.02832V28.608H74.7166V6.02832H78.0108Z" fill="#34A853"/>
<path d="M90.8484 23.9112L93.47 25.662C92.6239 26.916 90.5849 29.0767 87.0618 29.0767C82.6926 29.0767 79.4295 25.6932 79.4295 21.3719C79.4295 16.7899 82.7203 13.667 86.6838 13.667C90.6751 13.667 92.6273 16.849 93.2654 18.5685L93.6156 19.4439L83.3341 23.7097C84.1212 25.2556 85.3453 26.0441 87.0618 26.0441C88.7817 26.0441 89.9746 25.1965 90.8484 23.9112ZM82.7792 21.1391L89.6521 18.2802C89.2741 17.3179 88.1367 16.6475 86.7982 16.6475C85.0818 16.6475 82.6926 18.1655 82.7792 21.1391Z" fill="#EA4335"/>
<path d="M12.2262 19.3701V16.1013H23.2221C23.3296 16.671 23.385 17.3449 23.385 18.0744C23.385 20.5269 22.7158 23.5595 20.5589 25.7202C18.461 27.9087 15.7805 29.0759 12.2296 29.0759C5.64806 29.0759 0.113708 23.7054 0.113708 17.1122C0.113708 10.5189 5.64806 5.14844 12.2296 5.14844C15.8707 5.14844 18.4645 6.57964 20.4133 8.44506L18.1108 10.7517C16.7133 9.43857 14.82 8.41727 12.2262 8.41727C7.42003 8.41727 3.66111 12.2975 3.66111 17.1122C3.66111 21.9268 7.42003 25.8071 12.2262 25.8071C15.3436 25.8071 17.119 24.553 18.2564 23.4136C19.1788 22.4896 19.7856 21.1696 20.0249 19.3667L12.2262 19.3701Z" fill="#4285F4"/>
</svg>
