<svg width="46" height="40" viewBox="0 0 46 40" fill="none" xmlns="http://www.w3.org/2000/svg">
<path d="M42.8781 22.9998V12.1815H45.9938V22.9998C45.9937 23.8533 45.2963 24.5453 44.4359 24.5453C43.5756 24.5453 42.8781 23.8533 42.8781 22.9998Z" fill="#33363F"/>
<path d="M38.5784 30.7272C38.5784 30.7272 38.5784 40 22.9999 40C7.42137 40 7.42137 30.7272 7.42137 30.7272V21.1592C7.42137 20.5847 8.03074 20.2111 8.54865 20.468L21.6063 26.945C22.4835 27.3801 23.5163 27.3801 24.3934 26.945L37.4511 20.468C37.969 20.2111 38.5784 20.5847 38.5784 21.1592V30.7272Z" fill="#33363F"/>
<path d="M0.861158 10.799L22.3033 0.16316C22.7419 -0.0543864 23.2581 -0.0543867 23.6967 0.163159L45.1388 10.799C46.2871 11.3686 46.2871 12.9941 45.1388 13.5637L23.6967 24.1995C23.2581 24.4171 22.7419 24.4171 22.3033 24.1995L0.861159 13.5637C-0.287052 12.9941 -0.287053 11.3686 0.861158 10.799Z" fill="#33363F"/>
</svg>
