<svg width="35" height="40" viewBox="0 0 35 40" fill="none" xmlns="http://www.w3.org/2000/svg">
<path fill-rule="evenodd" clip-rule="evenodd" d="M14.5459 0.595896C16.4323 -0.198632 18.5677 -0.198632 20.4541 0.595896L33.4851 6.08519C34.404 6.47239 34.9998 7.36063 35 8.34331V21.2513C35 26.0128 32.6602 30.4822 28.7183 33.2497L20.4065 39.0846C18.668 40.3051 16.332 40.3051 14.5935 39.0846L6.28174 33.2497C2.3398 30.4822 0 26.0128 0 21.2513V8.34331C0.000227979 7.36063 0.595992 6.47239 1.51489 6.08519L14.5459 0.595896ZM26.5613 12.178C25.4833 11.3305 23.9106 11.5014 23.0481 12.5608L14.7925 22.7019L11.7676 19.7298C10.7913 18.7706 9.20866 18.7706 8.23242 19.7298C7.25621 20.6894 7.25642 22.2449 8.23242 23.2046L12.2449 27.1485C13.8253 28.7019 16.4285 28.5604 17.8247 26.8449L26.9519 15.6312C27.8142 14.5715 27.6391 13.0258 26.5613 12.178Z" fill="#383F45"/>
</svg>
