<svg width="48" height="40" viewBox="0 0 48 40" fill="none" xmlns="http://www.w3.org/2000/svg">
<path d="M34.1951 10.6667C34.1951 16.5577 29.4195 21.3333 23.5284 21.3333C17.6374 21.3333 12.8618 16.5577 12.8618 10.6667C12.8618 4.77563 17.6374 0 23.5284 0C29.4195 0 34.1951 4.77563 34.1951 10.6667Z" fill="#383F45"/>
<path d="M44.8618 10.6666C44.8618 15.0849 41.28 18.6666 36.8618 18.6666C32.4435 18.6666 28.8618 15.0849 28.8618 10.6666C28.8618 6.24835 32.4435 2.66663 36.8618 2.66663C41.28 2.66663 44.8618 6.24835 44.8618 10.6666Z" fill="#383F45"/>
<path d="M18.1951 10.6666C18.1951 15.0849 14.6133 18.6666 10.1951 18.6666C5.77679 18.6666 2.19507 15.0849 2.19507 10.6666C2.19507 6.24835 5.77679 2.66663 10.1951 2.66663C14.6133 2.66663 18.1951 6.24835 18.1951 10.6666Z" fill="#383F45"/>
<path d="M36.8615 21.3333C43.3893 21.3333 46.0036 27.8555 46.9855 31.7766C47.3687 33.3069 46.1596 34.666 44.5822 34.6663H38.3781C37.3034 30.641 35.2243 26.0748 31.2053 23.4661C32.6507 22.1898 34.4989 21.3333 36.8615 21.3333Z" fill="#383F45"/>
<path d="M10.1955 21.3333C12.5578 21.3333 14.4054 22.1901 15.8508 23.4661C11.8321 26.0749 9.75354 30.6412 8.67889 34.6663H2.47479C0.89733 34.666 -0.311753 33.3069 0.0714687 31.7766C1.05344 27.8555 3.66775 21.3333 10.1955 21.3333Z" fill="#383F45"/>
<path d="M23.5283 24C33.4181 24 35.9723 32.8026 36.632 37.3495C36.8434 38.807 35.6678 40 34.195 40H12.8617C11.3889 40 10.2132 38.807 10.4247 37.3495C11.0844 32.8026 13.6386 24 23.5283 24Z" fill="#383F45"/>
</svg>
