<svg width="42" height="40" viewBox="0 0 42 40" fill="none" xmlns="http://www.w3.org/2000/svg">
<path d="M34.9994 16.4704V9.88267C34.9994 8.5261 34.9964 7.64957 34.9424 6.9829C34.8906 6.34388 34.803 6.10659 34.7442 5.99027C34.5206 5.54799 34.1642 5.18867 33.7257 4.96317C33.6103 4.9039 33.375 4.81549 32.7413 4.76327C32.0802 4.7088 31.211 4.70582 29.8657 4.70582H9.80029C8.45503 4.70582 7.5858 4.7088 6.92469 4.76327C6.291 4.81549 6.05569 4.9039 5.94034 4.96317C5.50175 5.18867 5.14542 5.54799 4.9218 5.99027C4.86302 6.10659 4.77535 6.34388 4.72356 6.9829C4.66955 7.64957 4.66659 8.5261 4.66659 9.88267V23.058C4.66659 24.4146 4.66955 25.2911 4.72356 25.9578C4.77535 26.5968 4.86302 26.8341 4.9218 26.9504C5.14542 27.3927 5.50175 27.752 5.94034 27.9775C6.05569 28.0368 6.291 28.1252 6.92469 28.1774C7.5858 28.2319 8.45503 28.2349 9.80029 28.2349H25.6662C26.9549 28.2349 27.9995 29.2883 27.9995 30.5878C27.9995 31.8873 26.9549 32.9407 25.6662 32.9407H9.80029C8.53203 32.9407 7.43938 32.9432 6.54417 32.8695C5.62191 32.7934 4.70391 32.6245 3.82123 32.1709C2.50473 31.4943 1.43434 30.4149 0.763343 29.0873C0.313596 28.1973 0.146038 27.2715 0.0706471 26.3415C-0.002495 25.4388 1.0298e-05 24.337 1.0298e-05 23.058V9.88267C1.0298e-05 8.60375 -0.002495 7.50192 0.0706471 6.59918C0.146038 5.66917 0.313596 4.74345 0.763343 3.85335C1.43434 2.52579 2.50473 1.4464 3.82123 0.76976C4.70391 0.316232 5.62191 0.147266 6.54417 0.0712409C7.43938 -0.00251597 8.53203 1.03845e-05 9.80029 1.03845e-05H29.8657C31.134 1.03845e-05 32.2266 -0.00251597 33.1218 0.0712409C34.0441 0.147266 34.9621 0.316232 35.8448 0.76976C37.1613 1.4464 38.2317 2.52579 38.9026 3.85335C39.3524 4.74345 39.52 5.66917 39.5953 6.59918C39.6685 7.50192 39.666 8.60375 39.666 9.88267V16.4704C39.666 17.7698 38.6213 18.8233 37.3327 18.8233C36.044 18.8233 34.9994 17.7698 34.9994 16.4704Z" fill="#383F45"/>
<path d="M20.9996 18.8233C22.2883 18.8233 23.3329 19.8767 23.3329 21.1762C23.3329 22.4756 22.2883 23.5291 20.9996 23.5291H11.6665C10.3778 23.5291 9.33318 22.4756 9.33318 21.1762C9.33318 19.8767 10.3778 18.8233 11.6665 18.8233H20.9996Z" fill="#383F45"/>
<path d="M27.9995 9.41163C29.2882 9.41163 30.3328 10.4651 30.3328 11.7645C30.3328 13.064 29.2882 14.1174 27.9995 14.1174H11.6665C10.3778 14.1174 9.33318 13.064 9.33318 11.7645C9.33318 10.4651 10.3778 9.41163 11.6665 9.41163H27.9995Z" fill="#383F45"/>
<path d="M34.9994 30.5878C32.4221 30.5878 30.3328 28.4809 30.3328 25.882C30.3328 23.283 32.4221 21.1762 34.9994 21.1762C37.5767 21.1762 39.666 23.283 39.666 25.882C39.666 28.4809 37.5767 30.5878 34.9994 30.5878Z" fill="#383F45"/>
<path d="M32.4041 38.7242L32.3015 38.908C31.6685 39.9153 30.3698 40.2961 29.2892 39.7512C28.1366 39.1701 27.6693 37.7564 28.2456 36.5941L30.0366 37.4972C28.3702 36.6568 28.2554 36.597 28.2479 36.5918L28.2502 36.5849C28.2519 36.5815 28.2551 36.5772 28.257 36.5734C28.2609 36.5657 28.266 36.5571 28.2707 36.5482C28.2801 36.5301 28.2902 36.5088 28.3026 36.4861C28.3272 36.4409 28.3587 36.3872 28.396 36.3253C28.4706 36.2013 28.5721 36.0449 28.7036 35.868C28.9661 35.5151 29.3536 35.0689 29.8953 34.6318C31.0084 33.7339 32.6826 32.9407 34.9994 32.9407C37.3162 32.9407 38.9904 33.7339 40.1035 34.6318C40.6452 35.0689 41.0327 35.5151 41.2952 35.868C41.4267 36.0449 41.5282 36.2013 41.6028 36.3253C41.64 36.3872 41.6716 36.4409 41.6962 36.4861C41.7086 36.5088 41.7187 36.5301 41.7281 36.5482C41.7328 36.5571 41.7379 36.5657 41.7418 36.5734C41.7437 36.5772 41.7469 36.5815 41.7486 36.5849L41.7509 36.5895C41.7434 36.5947 41.6286 36.6568 39.9622 37.4972L41.7532 36.5941C42.3295 37.7564 41.8622 39.1701 40.7096 39.7512C39.629 40.2961 38.3303 39.9153 37.6973 38.908L37.6038 38.7448C37.6056 38.7481 37.607 38.7515 37.6084 38.754C37.6118 38.7602 37.6142 38.7638 37.6152 38.7655C37.6118 38.7598 37.5944 38.7321 37.5628 38.6897C37.4971 38.6014 37.374 38.4593 37.1869 38.3083C36.8416 38.0297 36.1826 37.6465 34.9994 37.6465C33.8162 37.6465 33.1572 38.0297 32.8119 38.3083C32.6248 38.4593 32.5017 38.6014 32.436 38.6897C32.4044 38.7321 32.387 38.7598 32.3836 38.7655C32.3845 38.7638 32.387 38.7602 32.3904 38.754C32.3934 38.7486 32.397 38.7402 32.4018 38.731C32.4028 38.729 32.4029 38.7264 32.4041 38.7242ZM37.5879 38.7173C37.5906 38.7226 37.5947 38.7266 37.597 38.731C37.5996 38.736 37.6018 38.741 37.6038 38.7448L37.5879 38.7173Z" fill="#383F45"/>
</svg>
