<svg width="100" height="50" viewBox="0 0 100 50" fill="none" xmlns="http://www.w3.org/2000/svg">
<g clip-path="url(#clip0_7033_3622)">
<path d="M46.8856 17.2545H44.4475V19.6273H47.176L47.0289 20.6186H43.2972V13.251H47.0037V14.2576H44.4475V16.2555H46.8856V17.2545Z" fill="#FAFAFA"/>
<path d="M48.3607 13.251H50.2159C52.0769 13.251 52.8341 14.4555 52.8341 16.7693C52.8341 19.2619 52.1214 20.6186 50.1055 20.6186H48.3588V13.251H48.3607ZM49.5342 19.6729H50.0842C51.2442 19.6729 51.6295 18.7977 51.6295 16.7826C51.6295 14.9978 51.2442 14.2119 50.0958 14.2119H49.5342V19.6729Z" fill="#FAFAFA"/>
<path d="M55.3845 13.251V18.3543C55.3845 19.0298 55.5665 19.7738 56.4496 19.7738C57.3326 19.7738 57.5089 19.1478 57.5089 18.3581V13.251H58.6747V18.3771C58.6747 19.7053 58.1595 20.7423 56.4264 20.7423C54.6932 20.7423 54.2148 19.7681 54.2148 18.3924V13.251H55.3845Z" fill="#FAFAFA"/>
<path d="M64.145 18.5807C64.1121 18.9726 63.9533 20.8107 61.9625 20.8107C59.9718 20.8107 59.6639 18.8908 59.6639 16.9823C59.6639 14.6799 60.33 13.2109 62.0458 13.2109C63.9726 13.2109 64.1082 14.8816 64.1353 15.4239H62.9773C62.9579 15.1746 62.9308 14.1928 62.0264 14.1928C61.0679 14.1928 60.8703 15.4011 60.8703 17.0013C60.8703 18.4475 61.0233 19.8422 61.9838 19.8422C62.8514 19.8422 62.9463 18.8927 62.9792 18.5807H64.145Z" fill="#FAFAFA"/>
<path d="M66.9535 18.5988L66.5216 20.6177H65.3558L67.1181 13.25H68.6305L70.4237 20.6177H69.1979L68.7641 18.5988H66.9554H66.9535ZM68.5472 17.5998C68.2141 16.0528 67.9701 14.9816 67.8598 14.3175H67.8307C67.7358 14.9835 67.4744 16.1651 67.1665 17.5998H68.5472Z" fill="#FAFAFA"/>
<path d="M71.8913 14.2576H70.2666V13.251H74.6838V14.2576H73.0591V20.6186H71.8933V14.2576H71.8913Z" fill="#FAFAFA"/>
<path d="M76.9536 13.251V20.6186H75.7878V13.251H76.9536Z" fill="#FAFAFA"/>
<path d="M83.1247 16.8758C83.1247 19.5074 82.4256 20.7385 80.7331 20.7385C79.1432 20.7385 78.4073 19.534 78.4073 16.8701C78.4073 14.2061 79.2672 13.1387 80.7873 13.1387C82.3927 13.1387 83.1247 14.3393 83.1247 16.8758ZM79.6041 16.8568C79.6041 18.7253 79.9295 19.7718 80.7641 19.7718C81.5987 19.7718 81.9299 18.7862 81.9299 16.8644C81.9299 14.9425 81.6162 14.1167 80.7622 14.1167C79.9081 14.1167 79.6041 15.0929 79.6041 16.8587V16.8568Z" fill="#FAFAFA"/>
<path d="M84.572 20.6186V13.251H85.9217C87.651 17.6731 87.9454 18.4228 88.0383 18.7691H88.05C87.9899 17.8482 87.9841 16.7559 87.9841 15.5515V13.251H89.0376V20.6186H87.744C85.9546 15.9301 85.6758 15.1842 85.5828 14.8627H85.5712C85.6274 15.7741 85.6293 16.9006 85.6293 18.223V20.6186H84.572Z" fill="#FAFAFA"/>
<path d="M91.7171 18.5988L91.2853 20.6177H90.1195L91.8817 13.25H93.3942L95.1874 20.6177H93.9616L93.5278 18.5988H91.7191H91.7171ZM93.3109 17.5998C92.9778 16.0528 92.7338 14.9816 92.6234 14.3175H92.5944C92.4995 14.9835 92.2381 16.1651 91.9302 17.5998H93.3109Z" fill="#FAFAFA"/>
<path d="M96.2316 13.251H97.3974V19.6349H100.002L99.8762 20.6186H96.2316V13.251Z" fill="#FAFAFA"/>
<path d="M43.356 23.7666H45.3293C46.4563 23.7666 47.0973 24.3945 47.0973 25.4411C47.0973 26.303 46.6771 26.7064 46.2937 26.8453C46.7875 27.0337 47.3045 27.479 47.3045 28.4951C47.3045 29.7433 46.497 30.4607 45.2944 30.4607H43.356V23.7666ZM45.0485 26.4781C45.8405 26.4781 46.0768 26.1603 46.0768 25.5343C46.0768 24.9083 45.7476 24.6019 45.1085 24.6019H44.3939V26.4781H45.0485ZM44.3939 29.6387H45.186C45.8599 29.6387 46.2394 29.2752 46.2394 28.4798C46.2394 27.6845 45.8889 27.3001 45.0485 27.3001H44.3939V29.6387Z" fill="#FAFAFA"/>
<path d="M51.436 27.4048H49.2206V29.5606H51.6994L51.5658 30.4607H48.1749V23.7666H51.5425V24.6819H49.2206V26.4971H51.436V27.4048Z" fill="#FAFAFA"/>
<path d="M53.6432 28.6264L53.252 30.4607H52.1927L53.7942 23.7666H55.1672L56.7959 30.4607H55.6824L55.2873 28.6264H53.6451H53.6432ZM55.0898 27.7187C54.7877 26.3145 54.5669 25.3402 54.4643 24.737H54.4372C54.35 25.3421 54.1138 26.4153 53.8349 27.7187H55.0898Z" fill="#FAFAFA"/>
<path d="M58.4115 23.7666V28.4037C58.4115 29.0164 58.578 29.6938 59.3778 29.6938C60.1776 29.6938 60.3402 29.1249 60.3402 28.4075V23.7666H61.3995V28.4247C61.3995 29.6329 60.9309 30.5748 59.3565 30.5748C57.7821 30.5748 57.3464 29.69 57.3464 28.4399V23.7685H58.4095L58.4115 23.7666Z" fill="#FAFAFA"/>
<path d="M63.5049 24.6819H62.0273V23.7666H66.0418V24.6819H64.5642V30.4607H63.5049V24.6819Z" fill="#FAFAFA"/>
<path d="M68.1724 30.4607V28.0289C68.1724 27.9566 68.1588 27.8957 68.1278 27.8291L66.4062 23.7666H67.5895C68 24.8436 68.5306 26.2326 68.7339 26.9215C68.9799 26.1584 69.5163 24.7922 69.892 23.7666H71.0094L69.2684 27.8405C69.2491 27.8843 69.2316 27.9547 69.2316 28.0479V30.4607H68.1724Z" fill="#FAFAFA"/>
<path d="M77.2586 28.5438C77.2276 28.8997 77.0843 30.5703 75.2756 30.5703C73.4669 30.5703 73.188 28.8254 73.188 27.092C73.188 24.9989 73.7922 23.665 75.3531 23.665C77.1037 23.665 77.2276 25.1835 77.2509 25.6763H76.1993C76.1819 25.4499 76.1567 24.5575 75.3357 24.5575C74.4642 24.5575 74.2861 25.6554 74.2861 27.1091C74.2861 28.4221 74.4255 29.6912 75.2969 29.6912C76.0851 29.6912 76.1722 28.8292 76.2013 28.5438H77.2606H77.2586Z" fill="#FAFAFA"/>
<path d="M81.3401 27.4048H79.1248V29.5606H81.6035L81.4699 30.4607H78.079V23.7666H81.4466V24.6819H79.1248V26.4971H81.3401V27.4048Z" fill="#FAFAFA"/>
<path d="M82.3726 30.4607V23.7666H83.5984C85.169 27.7853 85.4381 28.4646 85.5214 28.7805H85.5311C85.4769 27.9433 85.4711 26.95 85.4711 25.8578V23.7666H86.4277V30.4607H85.2522C83.6255 26.2003 83.3738 25.5229 83.2886 25.2299H83.2789C83.3293 26.0595 83.3331 27.0813 83.3331 28.2839V30.4607H82.3726Z" fill="#FAFAFA"/>
<path d="M88.5705 24.6819H87.093V23.7666H91.1074V24.6819H89.6298V30.4607H88.5705V24.6819Z" fill="#FAFAFA"/>
<path d="M95.0547 27.4048H92.8393V29.5606H95.318L95.1844 30.4607H91.7936V23.7666H95.1612V24.6819H92.8393V26.4971H95.0547V27.4048Z" fill="#FAFAFA"/>
<path d="M97.1407 27.5284V30.4607H96.0872V23.7666H98.0683C99.2747 23.7666 99.9409 24.4021 99.9409 25.5609C99.9409 26.5409 99.4238 26.9614 99.0482 27.0984C99.6117 27.3344 99.8421 27.8101 99.8421 28.7824V29.0488C99.8421 29.7623 99.8731 30.101 99.9351 30.4588H98.9049C98.808 30.1524 98.7925 29.6006 98.7925 29.0355V28.7976C98.7925 27.8824 98.5873 27.5265 97.7662 27.5265H97.1387L97.1407 27.5284ZM97.1407 26.676H97.8146C98.5834 26.676 98.8797 26.3145 98.8797 25.6028C98.8797 24.9939 98.5873 24.6191 97.9192 24.6191H97.1407V26.676Z" fill="#FAFAFA"/>
<path d="M49.1167 37.3857L48.3653 33.2852H48.8649C49.0973 34.6514 49.3316 36.0842 49.382 36.6874H49.3878C49.4652 36.0747 49.8409 34.2442 50.0152 33.2852H50.4587C50.6271 34.1966 51.0028 36.0804 51.0706 36.6645H51.0822C51.1636 35.9186 51.5005 34.1909 51.6458 33.2852H52.1183L51.3069 37.3857H50.815C50.6485 36.4666 50.3057 34.7313 50.2224 34.0843H50.2147C50.1237 34.7732 49.7751 36.4895 49.6008 37.3857H49.1147H49.1167Z" fill="#CED2D6"/>
<path d="M58.5707 36.1356L58.3093 37.3857H57.8387L58.7567 33.2852H59.3686L60.3117 37.3857H59.8121L59.5468 36.1356H58.5707ZM59.4538 35.6903C59.2466 34.7256 59.1091 34.0977 59.0549 33.7571H59.0413C58.989 34.1186 58.8399 34.8321 58.6618 35.6903H59.4538Z" fill="#CED2D6"/>
<path d="M66.9603 35.5248V37.3857H66.4916V33.2852H67.5238C68.1764 33.2852 68.525 33.6752 68.525 34.3564C68.525 34.9653 68.2403 35.226 68.0157 35.3097C68.3604 35.4467 68.4766 35.7702 68.4766 36.3506V36.5142C68.4766 36.9119 68.4901 37.165 68.5308 37.3857H68.066C68.0118 37.1992 68.0079 36.8415 68.0079 36.5047V36.3639C68.0079 35.7873 67.8956 35.5248 67.3941 35.5248H66.9603ZM66.9603 35.1023H67.4173C67.8743 35.1023 68.0467 34.8378 68.0467 34.3736C68.0467 33.9721 67.8724 33.7095 67.4618 33.7095H66.9583V35.1023H66.9603Z" fill="#CED2D6"/>
<path d="M75.2061 36.2959C75.237 36.7012 75.4152 37.0323 75.8219 37.0323C76.2285 37.0323 76.399 36.7982 76.399 36.3587C76.399 35.9458 76.2363 35.7212 75.7231 35.4567C75.1131 35.1447 74.8497 34.8593 74.8497 34.2618C74.8497 33.6643 75.1983 33.2305 75.8354 33.2305C76.5984 33.2305 76.8018 33.8089 76.8134 34.2998H76.3505C76.3312 34.0943 76.275 33.6453 75.8219 33.6453C75.4714 33.6453 75.3223 33.9003 75.3223 34.218C75.3223 34.5929 75.4791 34.7679 75.9536 35.0096C76.6275 35.3521 76.885 35.6908 76.885 36.3168C76.885 36.9428 76.5384 37.449 75.8122 37.449C75.0221 37.449 74.7665 36.8991 74.7374 36.2978H75.2099L75.2061 36.2959Z" fill="#CED2D6"/>
<path d="M83.7086 36.1356L83.4472 37.3857H82.9766L83.8945 33.2852H84.5065L85.4496 37.3857H84.9499L84.6846 36.1356H83.7086ZM84.5917 35.6903C84.3845 34.7256 84.247 34.0977 84.1928 33.7571H84.1792C84.1269 34.1186 83.9778 34.8321 83.7996 35.6903H84.5917Z" fill="#CED2D6"/>
<path d="M91.9344 37.3857L91.183 33.2852H91.6827C91.9151 34.6514 92.1494 36.0842 92.1997 36.6874H92.2055C92.283 36.0747 92.6587 34.2442 92.833 33.2852H93.2745C93.4449 34.1966 93.8186 36.0804 93.8864 36.6645H93.898C93.9794 35.9186 94.3163 34.1909 94.4616 33.2852H94.9341L94.1227 37.3857H93.6308C93.4643 36.4666 93.1215 34.7313 93.0382 34.0843H93.0305C92.9395 34.7732 92.5909 36.4895 92.4166 37.3857H91.9325H91.9344Z" fill="#CED2D6"/>
<path d="M35.8768 22.5439C36.6262 21.6629 37.0387 20.702 37.1123 19.6631C37.1858 18.6242 36.9457 17.6461 36.3938 16.729C35.84 15.8118 34.986 14.8871 33.8318 14.2458C32.6757 13.6065 31.2504 13.2487 29.554 13.1764C30.2182 12.5961 30.8495 12.0119 31.4537 11.4182C32.056 10.8265 32.5847 10.2176 33.0397 9.58775C33.4948 8.95982 33.857 8.31287 34.1281 7.64879C34.3992 6.98471 34.5347 6.3016 34.5347 5.60137C34.5347 3.93452 33.6982 2.60636 32.027 1.615C30.3538 0.625538 27.662 0.128906 23.9517 0.128906H14.9914V0.16506C15.3361 0.334409 15.6111 0.551329 15.8202 0.817722C16.0294 1.08411 16.1881 1.37905 16.3005 1.70633C16.4108 2.03171 16.4844 2.37612 16.5212 2.73955C16.558 3.10109 16.5774 3.45311 16.5774 3.7899V30.1552C16.5774 30.1552 18.1789 27.5065 20.859 26.0794V25.6398C21.4051 21.2653 23.8587 18.2322 26.2387 15.8936C27.6214 14.535 28.8937 13.7549 28.8937 13.7549C29.6547 13.9718 30.2841 14.3999 30.774 15.0412C32.2187 16.9269 32.1354 19.117 31.9534 20.0246C31.0994 24.2983 25.0729 25.3829 25.0729 25.3829H25.0884C23.6689 25.5903 22.8052 25.8472 21.8273 26.3153C20.3691 27.0136 19.1491 27.9403 18.1653 29.0934C17.2281 30.1913 16.5212 31.4377 16.0352 32.8324V32.7867C16.0352 32.7867 15.5646 33.9532 14.1432 35.3498C13.5874 35.8959 12.044 37.0776 9.79182 37.0776L6.76891 37.0738V25.5313H6.78634C7.19494 25.5313 7.60549 25.5656 8.00441 25.6626C8.50984 25.7863 9.00559 25.9823 9.51683 26.262C10.4696 26.7815 11.2326 27.4684 11.8039 28.3228H11.8348V22.3803H11.8039C11.2326 23.2347 10.4696 23.7751 9.51683 24.2945C9.00559 24.5742 8.50984 24.7702 8.00441 24.8939C7.60742 24.991 7.19688 25.0252 6.78828 25.0252H6.77085V13.4866L9.57299 13.4828C11.8252 13.4828 13.3686 14.6644 13.9244 15.2105C15.3458 16.6072 15.8086 17.766 15.8996 17.7736V12.9938H0.275757V13.0299C0.620458 13.1993 0.895443 13.4162 1.10459 13.6826C1.31373 13.949 1.47253 14.2439 1.58484 14.5712C1.69523 14.8966 1.76881 15.241 1.80561 15.6044C1.8424 15.966 1.86177 16.318 1.86177 16.6548V23.3393L1.9005 23.5505C2.0438 24.3307 2.55117 25.0005 3.26962 25.3601L3.25606 25.3677C2.50082 25.7844 1.9857 26.5208 1.86177 27.3618V33.9056C1.86177 34.2443 1.8424 34.5944 1.80561 34.9559C1.76881 35.3175 1.69523 35.6619 1.58484 35.9892C1.47446 36.3145 1.31373 36.6114 1.10459 36.8778C0.895443 37.1442 0.618521 37.3611 0.275757 37.5304V37.5666H15.2296C15.2296 39.1041 15.4716 40.6054 15.9577 42.0743C16.4438 43.5414 17.1719 44.8524 18.144 46.0055C19.1162 47.1586 20.3362 48.091 21.806 48.8007C23.2758 49.5105 24.9819 49.8663 26.9262 49.8663C28.8704 49.8663 30.6172 49.5219 32.3833 48.835C34.1494 48.1481 35.6482 47.1054 36.8818 45.7087L36.5623 45.429C35.3539 46.7153 34.1997 47.446 32.9255 47.9064C31.3705 48.4678 30.317 48.4107 29.0602 48.365C27.5904 48.3174 26.322 47.9578 25.2549 47.2823C24.1879 46.6068 23.3165 45.7334 22.6406 44.6621C21.9648 43.5909 21.4671 42.3788 21.1476 41.0278C20.8281 39.6768 20.6673 38.2973 20.6673 36.8873C20.6673 35.4773 20.8145 34.1035 21.1127 32.7639C21.409 31.4243 21.8292 30.2313 22.3753 29.1828C22.9195 28.1344 23.5837 27.2914 24.3661 26.6502C25.1484 26.0109 26.0257 25.6893 26.9978 25.6893C27.9699 25.6893 28.7097 25.9633 29.3623 26.5113C30.013 27.0593 30.5474 27.7519 30.9619 28.5892C31.3763 29.4283 31.6784 30.3416 31.8682 31.3311C31.934 31.6717 31.9824 32.0009 32.025 32.3244C33.4193 31.4453 34.8252 30.5795 36.2331 29.7213V29.7175C35.8574 28.8651 35.2551 28.1058 34.4282 27.4361C33.6226 26.7834 32.5963 26.2601 31.353 25.8643C30.8437 25.7026 30.2938 25.5751 29.707 25.48C30.7837 25.3354 31.7423 25.0975 32.5769 24.7569C34.0274 24.1651 35.1273 23.4287 35.8768 22.5458V22.5439ZM28.8143 8.70104C26.8022 14.4323 24.887 16.0839 23.4365 18.0115C22.3056 19.5147 21.624 20.8238 21.4768 21.2767V0.602705H22.8788C24.0098 0.602705 24.98 0.747318 25.7914 1.03845C26.6028 1.32767 27.267 1.71585 27.7821 2.19725C28.2991 2.68057 28.6787 3.23048 28.9246 3.84699C29.1706 4.4635 29.2926 5.09713 29.2926 5.74979C29.2926 6.78872 29.1396 7.77628 28.8123 8.70294L28.8143 8.70104Z" fill="#FAFAFA"/>
</g>
<defs>
<clipPath id="clip0_7033_3622">
<rect width="100" height="50" fill="white"/>
</clipPath>
</defs>
</svg>
