<svg width="11" height="10" viewBox="0 0 11 10" fill="none" xmlns="http://www.w3.org/2000/svg">
<path d="M0.375 0.375H1.06784C1.32268 0.375 1.54569 0.546327 1.61135 0.792563L1.80295 1.51105M3 6C2.17157 6 1.5 6.67157 1.5 7.5H9.375M3 6H8.60913C9.16968 4.84968 9.65885 3.65818 10.0709 2.43125C7.69002 1.82323 5.19526 1.5 2.625 1.5C2.3501 1.5 2.07607 1.5037 1.80295 1.51105M3 6L1.80295 1.51105M2.25 9C2.25 9.20711 2.08211 9.375 1.875 9.375C1.66789 9.375 1.5 9.20711 1.5 9C1.5 8.79289 1.66789 8.625 1.875 8.625C2.08211 8.625 2.25 8.79289 2.25 9ZM8.625 9C8.625 9.20711 8.45711 9.375 8.25 9.375C8.04289 9.375 7.875 9.20711 7.875 9C7.875 8.79289 8.04289 8.625 8.25 8.625C8.45711 8.625 8.625 8.79289 8.625 9Z" stroke="#454C52" stroke-width="0.75" stroke-linecap="round" stroke-linejoin="round"/>
</svg>
