<svg width="60" height="28" viewBox="0 0 60 28" fill="none" xmlns="http://www.w3.org/2000/svg">
<path fill-rule="evenodd" clip-rule="evenodd" d="M11.6924 7.86592C12.6325 7.94522 13.5726 7.39011 14.1601 6.68632C14.7379 5.9627 15.1198 4.99126 15.0219 4C14.1895 4.03965 13.1613 4.55511 12.5737 5.27873C12.0352 5.90322 11.5749 6.91431 11.6924 7.86592ZM22.8755 20.6333V5.17959H28.6041C31.5615 5.17959 33.6277 7.24141 33.6277 10.2548C33.6277 13.2683 31.5223 15.3499 28.5258 15.3499H25.2453V20.6333H22.8755ZM15.012 8.05398C14.1838 8.00573 13.4281 8.30611 12.8177 8.54873C12.4249 8.70486 12.0923 8.83708 11.8392 8.83708C11.5552 8.83708 11.2089 8.69779 10.82 8.5414C10.3104 8.33649 9.72784 8.10221 9.11691 8.11346C7.71658 8.13328 6.41417 8.9362 5.69932 10.2149C4.23044 12.7724 5.31741 16.559 6.73732 18.6406C7.43259 19.6715 8.26496 20.8016 9.36172 20.7619C9.84423 20.7435 10.1913 20.5944 10.5505 20.4401C10.9641 20.2625 11.3937 20.078 12.0645 20.078C12.712 20.078 13.1228 20.2577 13.5172 20.4302C13.8921 20.5942 14.2522 20.7518 14.7868 20.7421C15.9227 20.7223 16.6376 19.7112 17.3328 18.6803C18.0831 17.5738 18.4129 16.494 18.4629 16.3301L18.4688 16.3112C18.4676 16.31 18.4583 16.3057 18.4419 16.2981C18.1911 16.1818 16.274 15.2934 16.2557 12.9112C16.2372 10.9116 17.7762 9.89845 18.0185 9.73896C18.0332 9.72925 18.0432 9.72271 18.0477 9.7193C17.0684 8.25223 15.5408 8.09363 15.012 8.05398ZM37.9561 20.7523C39.4445 20.7523 40.8253 19.989 41.452 18.7797H41.501V20.6333H43.6945V12.9412C43.6945 10.7108 41.9318 9.2735 39.2193 9.2735C36.7026 9.2735 34.842 10.7307 34.7735 12.733H36.9083C37.0845 11.7814 37.9561 11.1569 39.1508 11.1569C40.6 11.1569 41.4128 11.8409 41.4128 13.0998V13.9522L38.4555 14.1307C35.7038 14.2992 34.2153 15.4391 34.2153 17.4217C34.2153 19.424 35.7527 20.7523 37.9561 20.7523ZM38.5924 18.9188C37.3292 18.9188 36.5262 18.3042 36.5262 17.3625C36.5262 16.3911 37.2998 15.8261 38.7785 15.7369L41.4127 15.5684V16.4407C41.4127 17.8879 40.1984 18.9188 38.5924 18.9188ZM50.9702 21.2377C50.0204 23.9438 48.9334 24.836 46.6223 24.836C46.4461 24.836 45.8585 24.8161 45.7214 24.7765V22.9228C45.8683 22.9427 46.2306 22.9625 46.4167 22.9625C47.4645 22.9625 48.0521 22.5164 48.4144 21.3566L48.6298 20.6727L44.6149 9.42188H47.0924L49.8833 18.5514H49.9322L52.7231 9.42188H55.1321L50.9702 21.2377ZM25.2451 7.20215H27.9772C30.0336 7.20215 31.2087 8.31236 31.2087 10.2651C31.2087 12.2179 30.0336 13.338 27.9674 13.338H25.2451V7.20215Z" fill="black"/>
</svg>
