<svg width="53" height="25" viewBox="0 0 53 25" fill="none" xmlns="http://www.w3.org/2000/svg">
<g clip-path="url(#clip0_9069_3182)">
<g clip-path="url(#clip1_9069_3182)">
<path d="M49.7748 -0.000976562H3.08413C2.26683 -0.000358496 1.48314 0.3244 0.904968 0.902063C0.326793 1.47973 0.0013413 2.26313 0 3.08043L0 21.9293C0.00144437 22.7466 0.326942 23.5299 0.905105 24.1074C1.48327 24.685 2.2669 25.0097 3.08413 25.0103H49.7748C50.5921 25.0098 51.3758 24.6852 51.9541 24.1076C52.5323 23.53 52.8579 22.7466 52.8593 21.9293V3.08043C52.858 2.26306 52.5325 1.4796 51.9542 0.901926C51.3759 0.324252 50.5922 -0.000461648 49.7748 -0.000976562Z" fill="white"/>
<path d="M49.7748 0.32129H3.08411C2.72158 0.320932 2.36254 0.392021 2.02749 0.530495C1.69245 0.668969 1.38799 0.872112 1.13149 1.12831C0.875003 1.38452 0.671516 1.68875 0.532664 2.02364C0.393811 2.35852 0.322317 2.71749 0.322266 3.08002V21.9293C0.322368 22.2918 0.3939 22.6507 0.532775 22.9856C0.67165 23.3204 0.875146 23.6246 1.13163 23.8808C1.38812 24.1369 1.69257 24.34 2.02758 24.4785C2.3626 24.6169 2.72161 24.688 3.08411 24.6877H49.7748C50.1372 24.688 50.4962 24.6168 50.8312 24.4784C51.1662 24.3399 51.4706 24.1368 51.727 23.8806C51.9834 23.6245 52.1869 23.3203 52.3258 22.9855C52.4646 22.6507 52.5361 22.2918 52.5362 21.9293V3.08002C52.5354 1.55588 51.2989 0.320511 49.7748 0.32129Z" fill="url(#paint0_linear_9069_3182)"/>
<path d="M20.1745 5.81764C20.1844 4.29213 18.9558 3.04743 17.4302 3.03753C15.9047 3.02762 14.66 4.25626 14.6501 5.78177C14.6402 7.30728 15.8689 8.55198 17.3944 8.56188C18.9199 8.57179 20.1646 7.34315 20.1745 5.81764Z" fill="white"/>
<path d="M22.3457 3.92285H25.4333V21.4425H22.3457V3.92285ZM28.1734 9.96758H31.261V21.4425H28.1734V9.96758Z" fill="white"/>
<path d="M14.3181 9.85359C13.3515 9.85226 12.3996 10.0912 11.5481 10.5488V3.92383H8.46008V15.7093C8.45977 16.8678 8.80302 18.0004 9.4464 18.9638C10.0898 19.9272 11.0044 20.6782 12.0746 21.1218C13.1448 21.5654 14.3225 21.6816 15.4588 21.4559C16.5951 21.2301 17.6389 20.6724 18.4583 19.8534C19.2776 19.0344 19.8357 17.9908 20.0619 16.8546C20.2881 15.7184 20.1723 14.5407 19.7292 13.4703C19.286 12.3999 18.5354 11.485 17.5722 10.8412C16.6091 10.1974 15.4766 9.85375 14.3181 9.85359ZM14.3181 18.5284C12.7613 18.5284 11.4994 17.2666 11.4994 15.7097C11.4994 14.1528 12.7613 12.891 14.3178 12.891C15.8742 12.891 17.1365 14.1524 17.1369 15.7093C17.1371 16.0796 17.0643 16.4462 16.9227 16.7883C16.7812 17.1304 16.5736 17.4412 16.3118 17.7031C16.05 17.9649 15.7392 18.1725 15.3971 18.3142C15.055 18.4558 14.6884 18.5286 14.3181 18.5284Z" fill="white"/>
<path d="M20.1745 5.81764C20.1844 4.29213 18.9558 3.04743 17.4302 3.03753C15.9047 3.02762 14.66 4.25626 14.6501 5.78177C14.6402 7.30728 15.8689 8.55198 17.3944 8.56188C18.9199 8.57179 20.1646 7.34315 20.1745 5.81764Z" fill="url(#paint1_linear_9069_3182)"/>
<path d="M22.3457 3.92285H25.4333V21.4425H22.3457V3.92285ZM28.1734 9.96758H31.261V21.4425H28.1734V9.96758Z" fill="white"/>
<path d="M14.3181 9.85262C13.3515 9.85128 12.3996 10.0902 11.5481 10.5479V3.92285H8.46008V15.7083C8.45977 16.8668 8.80302 17.9994 9.4464 18.9628C10.0898 19.9262 11.0044 20.6772 12.0746 21.1208C13.1448 21.5644 14.3225 21.6806 15.4588 21.4549C16.5951 21.2291 17.6389 20.6715 18.4583 19.8524C19.2776 19.0334 19.8357 17.9898 20.0619 16.8536C20.2881 15.7175 20.1723 14.5397 19.7292 13.4693C19.286 12.3989 18.5354 11.484 17.5722 10.8402C16.6091 10.1965 15.4766 9.85277 14.3181 9.85262ZM14.3181 18.5275C12.7613 18.5275 11.4994 17.2656 11.4994 15.7087C11.4994 14.1519 12.7613 12.89 14.3178 12.89C15.8742 12.89 17.1365 14.1515 17.1369 15.7083C17.1371 16.0786 17.0643 16.4452 16.9227 16.7873C16.7812 17.1294 16.5736 17.4403 16.3118 17.7021C16.05 17.9639 15.7392 18.1716 15.3971 18.3132C15.055 18.4548 14.6884 18.5276 14.3181 18.5275Z" fill="white"/>
<path d="M41.4184 21.4438H45.3957L40.6171 15.2721L44.9503 9.96895H41.3428L37.0876 15.3052V3.92578H33.9991V21.4438H37.0876L37.0852 15.32L41.4184 21.4438Z" fill="white"/>
</g>
</g>
<defs>
<linearGradient id="paint0_linear_9069_3182" x1="26.4292" y1="24.5171" x2="26.4292" y2="0.418756" gradientUnits="userSpaceOnUse">
<stop stop-color="#5A5A5A"/>
<stop offset="0.146" stop-color="#484848"/>
<stop offset="0.52" stop-color="#212121"/>
<stop offset="0.817" stop-color="#080808"/>
<stop offset="1"/>
</linearGradient>
<linearGradient id="paint1_linear_9069_3182" x1="15.444" y1="7.7371" x2="19.3806" y2="3.85678" gradientUnits="userSpaceOnUse">
<stop stop-color="#E52F08"/>
<stop offset="1" stop-color="#E94F96"/>
</linearGradient>
<clipPath id="clip0_9069_3182">
<rect width="53" height="24.94" fill="white"/>
</clipPath>
<clipPath id="clip1_9069_3182">
<rect width="53" height="24.9412" fill="white" transform="translate(0 -0.000976562)"/>
</clipPath>
</defs>
</svg>
