<svg width="60" height="28" viewBox="0 0 60 28" fill="none" xmlns="http://www.w3.org/2000/svg">
<path d="M28.5862 14.0789V20.1239H26.6362V5.17389H31.7062C32.9412 5.17389 34.1112 5.62889 35.0212 6.47389C35.9312 7.25389 36.3862 8.42389 36.3862 9.65889C36.3862 10.8939 35.9312 11.9989 35.0212 12.8439C34.1112 13.6889 33.0062 14.1439 31.7062 14.1439L28.5862 14.0789ZM28.5862 6.99389V12.1939H31.8362C32.5512 12.1939 33.2662 11.9339 33.7212 11.4139C34.7612 10.4389 34.7612 8.81389 33.7862 7.83889L33.7212 7.77389C33.2012 7.25389 32.5512 6.92889 31.8362 6.99389H28.5862Z" fill="#5F6368"/>
<path d="M40.8712 9.59389C42.3012 9.59389 43.4062 9.98389 44.2512 10.7639C45.0962 11.5439 45.4862 12.5839 45.4862 13.8839V20.1239H43.6662V18.6939H43.6012C42.8212 19.8639 41.7162 20.4489 40.4162 20.4489C39.3112 20.4489 38.3362 20.1239 37.5562 19.4739C36.8412 18.8239 36.3862 17.9139 36.3862 16.9389C36.3862 15.8989 36.7762 15.0539 37.5562 14.4039C38.3362 13.7539 39.4412 13.4939 40.7412 13.4939C41.9112 13.4939 42.8212 13.6889 43.5362 14.1439V13.6889C43.5362 13.0389 43.2762 12.3889 42.7562 11.9989C42.2362 11.5439 41.5862 11.2839 40.8712 11.2839C39.7662 11.2839 38.9212 11.7389 38.3362 12.6489L36.6462 11.6089C37.6862 10.2439 39.0512 9.59389 40.8712 9.59389ZM38.4012 17.0039C38.4012 17.5239 38.6612 17.9789 39.0512 18.2389C39.5062 18.5639 40.0262 18.7589 40.5462 18.7589C41.3262 18.7589 42.1062 18.4339 42.6912 17.8489C43.3412 17.2639 43.6662 16.5489 43.6662 15.7689C43.0812 15.3139 42.2362 15.0539 41.1312 15.0539C40.3512 15.0539 39.7012 15.2489 39.1812 15.6389C38.6612 15.9639 38.4012 16.4189 38.4012 17.0039ZM56.0162 9.91889L49.5812 24.6739H47.6312L50.0362 19.5389L45.8112 9.98389H47.8912L50.9462 17.3289H51.0112L54.0012 9.98389H56.0162V9.91889Z" fill="#5F6368"/>
<path d="M20.8512 12.7785C20.8512 12.1935 20.7862 11.6085 20.7212 11.0235H12.5962V14.3385H17.2112C17.0162 15.3785 16.4312 16.3535 15.5212 16.9385V19.0835H18.3162C19.9412 17.5885 20.8512 15.3785 20.8512 12.7785Z" fill="#4285F4"/>
<path d="M12.5963 21.1631C14.9363 21.1631 16.8862 20.3835 18.3162 19.0835L15.5212 16.9385C14.7412 17.4585 13.7663 17.7831 12.5963 17.7831C10.3863 17.7831 8.43625 16.2881 7.78625 14.2081H4.92625V16.4181C6.42125 19.3431 9.34625 21.1631 12.5963 21.1631Z" fill="#34A853"/>
<path d="M7.78625 14.2081C7.39625 13.1681 7.39625 11.9985 7.78625 10.8935V8.6835H4.92625C3.69125 11.0885 3.69125 13.9481 4.92625 16.4181L7.78625 14.2081Z" fill="#FBBC04"/>
<path d="M12.5962 7.3835C13.8312 7.3835 15.0012 7.8385 15.9112 8.6835L18.3812 6.2135C16.8212 4.7835 14.7412 3.9385 12.6612 4.0035C9.41125 4.0035 6.42125 5.8235 4.99125 8.7485L7.85125 10.9585C8.43625 8.8785 10.3862 7.3835 12.5962 7.3835Z" fill="#EA4335"/>
</svg>
