<svg width="60" height="28" viewBox="0 0 60 28" fill="none" xmlns="http://www.w3.org/2000/svg">
<g clip-path="url(#clip0_9069_3156)">
<g clip-path="url(#clip1_9069_3156)">
<path d="M35.2885 3.82227H23.7115V24.627H35.2885V3.82227Z" fill="#F16122"/>
<path d="M24.4465 14.2242C24.4452 12.2211 24.8997 10.2431 25.7749 8.44173C26.6501 6.64036 27.9242 5.06061 29.5 3.82353C27.5478 2.29008 25.204 1.33614 22.7358 1.07087C20.2676 0.80559 17.7742 1.24022 15.5422 2.32514C13.3093 3.41019 11.4267 5.10158 10.1097 7.20597C8.79319 9.31033 8.0946 11.7421 8.0946 14.2249C8.0946 16.7077 8.79319 19.1395 10.1097 21.2438C11.4268 23.348 13.3094 25.0391 15.5422 26.124C17.7747 27.2093 20.2677 27.644 22.7358 27.3783C25.204 27.1136 27.5478 26.159 29.5 24.6256C27.9229 23.3899 26.6481 21.8101 25.7729 20.0087C24.8977 18.2074 24.4432 16.228 24.4445 14.2249" fill="#ED1D24"/>
<path d="M50.4919 22.4095V21.8968H50.3563L50.2021 22.2494L50.048 21.8968H49.915V22.4095H50.011V22.0232L50.1558 22.3606H50.2524L50.3986 22.0232V22.4109L50.4919 22.4095ZM49.6431 22.4095V21.9875H49.8125V21.9028H49.3752V21.9875H49.5439V22.4095H49.6431ZM50.9047 14.2243C50.9041 16.707 50.2054 19.1394 48.8883 21.2439C47.5712 23.3489 45.6891 25.0392 43.4558 26.1234C41.2224 27.2077 38.7297 27.6443 36.2622 27.3777C33.7947 27.1111 31.4495 26.1585 29.4973 24.6257C31.0721 23.3874 32.3452 21.8076 33.2205 20.0055C34.0956 18.2039 34.5504 16.2272 34.5508 14.2243C34.5508 12.2212 34.0959 10.2442 33.2205 8.44248C32.345 6.64053 31.072 5.06078 29.4973 3.82229C31.4495 2.28951 33.7933 1.33491 36.2622 1.06963C38.7303 0.804858 41.2231 1.23973 43.4558 2.32457C45.6891 3.40949 47.5712 5.10038 48.8883 7.20474C50.2055 9.30869 50.9042 11.7408 50.9047 14.223" fill="#F99F1C"/>
</g>
</g>
<defs>
<clipPath id="clip0_9069_3156">
<rect width="43" height="26.45" fill="white" transform="translate(8 1)"/>
</clipPath>
<clipPath id="clip1_9069_3156">
<rect width="43" height="26.4615" fill="white" transform="translate(8 0.994141)"/>
</clipPath>
</defs>
</svg>
