<svg width="60" height="28" viewBox="0 0 60 28" fill="none" xmlns="http://www.w3.org/2000/svg">
<g clip-path="url(#clip0_9069_3171)">
<path d="M41.0269 10.8169C40.7728 12.4922 39.4922 12.4922 38.2557 12.4922H37.5507L38.0447 9.36473C38.0747 9.17535 38.2369 9.03566 38.4291 9.03566H38.7525C39.5935 9.03566 40.3894 9.03566 40.8 9.51566C41.0447 9.80254 41.1197 10.2291 41.0269 10.8169ZM40.4888 6.44629H35.821C35.5022 6.44629 35.2303 6.67879 35.1797 6.99379L33.2925 18.961C33.256 19.1982 33.4378 19.41 33.6769 19.41H36.0722C36.2953 19.41 36.4847 19.2488 36.5213 19.0275L37.0557 15.6347C37.1063 15.3197 37.3772 15.0872 37.6969 15.0872H39.1735C42.2475 15.0872 44.0213 13.5994 44.4844 10.651C44.6953 9.36191 44.4938 8.34754 43.89 7.63879C43.2263 6.85785 42.0507 6.44629 40.4888 6.44629Z" fill="#2790C3"/>
<path d="M7.73902 10.8169C7.48402 12.4922 6.20434 12.4922 4.96684 12.4922H4.26184L4.7559 9.36473C4.7859 9.17535 4.94902 9.03567 5.14027 9.03567H5.46277C6.30465 9.03567 7.10152 9.03567 7.51121 9.51567C7.75777 9.80254 7.83184 10.2291 7.73902 10.8169ZM7.2009 6.44629H2.53309C2.37856 6.44602 2.22903 6.50109 2.11158 6.60151C1.99413 6.70194 1.91651 6.84109 1.89277 6.99379L0.00464936 18.96C-0.0328506 19.1972 0.149962 19.4091 0.389024 19.4091H2.61652C2.77108 19.4096 2.92071 19.3548 3.03834 19.2545C3.15597 19.1543 3.23381 19.0152 3.25777 18.8625L3.76684 15.6338C3.79058 15.4811 3.8682 15.3419 3.98565 15.2415C4.1031 15.1411 4.25262 15.086 4.40715 15.0863H5.88465C8.95871 15.0863 10.7325 13.5985 11.1965 10.65C11.4056 9.36098 11.205 8.3466 10.6012 7.63785C9.93746 6.85785 8.76184 6.44629 7.2009 6.44629ZM18.0356 15.1135C17.82 16.3894 16.8056 17.2472 15.5128 17.2472C14.865 17.2472 14.3456 17.0382 14.0118 16.6435C13.6781 16.2488 13.5562 15.6938 13.6612 15.0732C13.8628 13.8075 14.8921 12.9235 16.1653 12.9235C16.8 12.9235 17.3156 13.1344 17.655 13.5319C17.999 13.9332 18.1331 14.4947 18.0356 15.1135ZM21.15 10.7635H18.915C18.7228 10.7635 18.5606 10.9022 18.5306 11.0925L18.4321 11.7179L18.2756 11.491C17.7909 10.7879 16.7128 10.5535 15.6356 10.5535C13.1662 10.5535 11.0578 12.4238 10.6472 15.0488C10.4334 16.3575 10.7372 17.6082 11.4787 18.4819C12.1603 19.2835 13.1343 19.6182 14.294 19.6182C16.2843 19.6182 17.3868 18.3404 17.3868 18.3404L17.2875 18.961C17.25 19.1972 17.4328 19.41 17.6718 19.41H19.6847C19.839 19.4103 19.9885 19.3554 20.1059 19.2552C20.2233 19.1549 20.301 19.016 20.325 18.8635L21.5334 11.2125C21.5718 10.9763 21.389 10.7635 21.15 10.7635Z" fill="#27346A"/>
<path d="M51.3235 15.1137C51.1079 16.3896 50.0935 17.2475 48.8016 17.2475C48.1538 17.2475 47.6344 17.0384 47.2997 16.6437C46.9651 16.249 46.846 15.694 46.9501 15.0734C47.1516 13.8078 48.181 12.9237 49.4541 12.9237C50.0897 12.9237 50.6054 13.1346 50.9457 13.5321C51.286 13.9296 51.4229 14.495 51.3235 15.1137ZM54.4379 10.7637H52.2029C52.0116 10.7637 51.8485 10.9025 51.8185 11.0928L51.721 11.7181L51.5644 11.4912C51.0807 10.7881 50.0016 10.5537 48.9254 10.5537C46.4569 10.5537 44.3466 12.424 43.9369 15.049C43.7232 16.3578 44.0269 17.6084 44.7685 18.4821C45.4519 19.2837 46.4251 19.6184 47.5838 19.6184C49.5741 19.6184 50.6785 18.3406 50.6785 18.3406L50.5791 18.9612C50.5416 19.1975 50.7235 19.4103 50.9635 19.4103H52.9754C53.1299 19.4108 53.2796 19.356 53.3972 19.2557C53.5148 19.1555 53.5927 19.0164 53.6166 18.8637L54.8241 11.2128C54.8597 10.9765 54.6779 10.7637 54.4379 10.7637Z" fill="#2790C3"/>
<mask id="mask0_9069_3171" style="mask-type:luminance" maskUnits="userSpaceOnUse" x="-25" y="1" width="86" height="22">
<path d="M-24.8662 22.4349H60.0019V1.8418H-24.8662V22.4349Z" fill="white"/>
</mask>
<g mask="url(#mask0_9069_3171)">
<path d="M33.0535 10.7637H30.8063C30.7004 10.7637 30.5961 10.7896 30.5026 10.8393C30.4091 10.889 30.3293 10.9609 30.27 11.0487L27.1716 15.6124L25.8591 11.2268C25.7766 10.9521 25.5244 10.7637 25.2375 10.7637H23.0297C22.7635 10.7637 22.575 11.0252 22.6613 11.2784L25.1344 18.5393L22.8085 21.8215C22.6257 22.0784 22.8103 22.4355 23.1253 22.4355H25.3697C25.4745 22.4356 25.5777 22.4102 25.6704 22.3615C25.7632 22.3128 25.8427 22.2424 25.9022 22.1562L33.3732 11.3749C33.5513 11.1162 33.3666 10.7637 33.0535 10.7637Z" fill="#27346A"/>
</g>
<path d="M57.0722 6.77535L55.1569 18.961C55.1194 19.1982 55.3013 19.41 55.5403 19.41H57.4688C57.623 19.4101 57.7722 19.3551 57.8894 19.2549C58.0067 19.1547 58.0842 19.0158 58.1081 18.8635L59.9972 6.89535C60.0356 6.66004 59.8538 6.44629 59.6138 6.44629H57.4566C57.2653 6.44629 57.1013 6.58598 57.0722 6.77535Z" fill="#2790C3"/>
</g>
<defs>
<clipPath id="clip0_9069_3171">
<rect width="60" height="28" fill="white"/>
</clipPath>
</defs>
</svg>
