<svg width="60" height="28" viewBox="0 0 60 28" fill="none" xmlns="http://www.w3.org/2000/svg">
<rect width="60" height="28" rx="5" fill="white"/>
<path d="M9.67758 15.5188V18.7045H6.39289V15.5188H9.67758Z" fill="#A70584"/>
<path d="M9.66428 11.1955V14.4079H6.37959V11.1955H9.66428Z" fill="#36B588"/>
<path d="M5.28469 15.4788V18.6912H2V15.4788H5.28469Z" fill="#FAD05B"/>
<path d="M19.4706 10.9941C19.4706 13.2107 17.6476 14.9882 15.299 14.9882H13.5089V18.6504H10.7826V7H15.2936C17.6476 7 19.4706 8.78289 19.4706 10.9941ZM16.7498 10.9941C16.7498 10.1428 16.1366 9.49498 15.3045 9.49498H13.5144V12.4932H15.3045C16.1366 12.4932 16.7498 11.8454 16.7498 10.9941ZM28.9743 10.1053V18.6504H26.352V17.8473C25.7772 18.4951 24.9177 18.8913 23.7462 18.8913C21.4578 18.8913 19.5691 16.9264 19.5691 14.3779C19.5691 11.8293 21.4578 9.86441 23.7462 9.86441C24.9177 9.86441 25.7717 10.2553 26.352 10.9084V10.1053H28.9743ZM26.352 14.3779C26.352 13.0982 25.4761 12.2898 24.2717 12.2898C23.0673 12.2898 22.1914 13.0929 22.1914 14.3779C22.1914 15.6575 23.0673 16.4659 24.2717 16.4659C25.4761 16.4606 26.352 15.6575 26.352 14.3779ZM38.9324 10.1053L35.9652 18.3398C34.9908 21.0383 33.447 22.1091 31.0163 21.9913V19.6141C32.2316 19.6141 32.8064 19.2393 33.1842 18.206L29.7353 10.1053H32.5984L34.5254 15.2988L36.1568 10.1053H38.9324ZM48.6386 10.9941C48.6386 13.2107 46.8156 14.9882 44.4671 14.9882H42.6769V18.6504H39.9506V7H44.4616C46.8156 7 48.6386 8.78289 48.6386 10.9941ZM45.9178 10.9941C45.9178 10.1428 45.3047 9.49498 44.4726 9.49498H42.6824V12.4932H44.4726C45.3047 12.4932 45.9178 11.8454 45.9178 10.9941ZM48.9781 14.4956C48.9781 12.0167 50.9872 10.1 53.489 10.1C55.9909 10.1 58 12.0167 58 14.4956C58 16.9746 55.9909 18.8913 53.489 18.8913C50.9872 18.8913 48.9781 16.9746 48.9781 14.4956ZM55.4489 14.4956C55.4489 13.3124 54.5949 12.5307 53.489 12.5307C52.3832 12.5307 51.5292 13.3124 51.5292 14.4956C51.5292 15.6789 52.3832 16.4606 53.489 16.4606C54.6003 16.4606 55.4489 15.6789 55.4489 14.4956Z" fill="black"/>
</svg>
