<svg width="48" height="16" viewBox="0 0 48 16" fill="none" xmlns="http://www.w3.org/2000/svg">
<path d="M31.2329 0C27.8281 0 24.7854 1.76477 24.7854 5.02531C24.7854 8.76451 30.1817 9.0228 30.1817 10.9013C30.1817 11.6922 29.2753 12.4003 27.7272 12.4003C25.53 12.4003 23.8879 11.4109 23.8879 11.4109L23.1853 14.7012C23.1853 14.7012 25.077 15.5369 27.5885 15.5369C31.311 15.5369 34.2402 13.6855 34.2402 10.3692C34.2402 6.41803 28.8215 6.16747 28.8215 4.42392C28.8215 3.80434 29.5656 3.12542 31.1093 3.12542C32.8511 3.12542 34.2721 3.84494 34.2721 3.84494L34.9597 0.667152C34.9597 0.667152 33.4135 0 31.2329 0ZM0.082464 0.239856L0 0.71952C0 0.71952 1.43242 0.981648 2.72251 1.50461C4.38365 2.10427 4.50197 2.45333 4.78171 3.5376L7.83024 15.2895H11.9168L18.2124 0.239856H14.1352L10.0899 10.4722L8.43922 1.79875C8.28782 0.806064 7.52102 0.239808 6.58238 0.239808H0.082464V0.239856ZM19.852 0.239856L16.6536 15.2895H20.5415L23.7287 0.239856H19.852ZM41.5364 0.239856C40.5989 0.239856 40.1022 0.741792 39.7377 1.6189L34.0415 15.2895H38.1188L38.9076 13.0111H43.8748L44.3545 15.2895H47.952L44.8135 0.239856H41.5364ZM42.0667 4.30579L43.2752 9.95314H40.0374L42.0667 4.30579Z" fill="#1434CB"/>
</svg>
